
    <svg display='none' xmlns="http://www.w3.org/2000/svg">
        <symbol id='pinterest' viewBox="0 0 455 455">
            <path d="M0,0v455h455V0H0z M251.83,297.635c-19.57,0-37.973-10.516-44.227-22.557
	c0,0-10.516,41.691-12.71,49.78c-7.84,28.437-30.926,56.874-32.684,59.176c-1.229,1.649-4.013,1.105-4.324-1.026
	c-0.482-3.656-6.379-39.497,0.545-68.728c3.469-14.701,23.272-98.627,23.272-98.627s-5.771-11.543-5.771-28.624
	c0-26.85,15.556-46.856,34.939-46.856c16.474,0,24.377,12.337,24.377,27.177c0,16.521-10.516,41.318-15.977,64.216
	c-4.511,19.212,9.598,34.831,28.546,34.831c34.332,0,57.371-43.993,57.371-96.138c0-39.684-26.678-69.397-75.292-69.397
	c-54.867,0-89.075,40.96-89.075,86.649c0,15.805,4.667,26.928,11.963,35.499c3.345,4.014,3.765,5.585,2.613,10.143
	c-0.917,3.344-2.862,11.309-3.765,14.529c-1.151,4.559-4.931,6.191-9.053,4.496c-25.217-10.329-37.009-37.989-37.009-69.164
	C105.569,131.619,148.832,70,234.874,70c69.101,0,114.557,50.013,114.557,103.667C349.431,244.635,309.995,297.635,251.83,297.635z"
	/>   
        </symbol>

         <symbol id='twitter' viewBox="0 0 455 455">
            <path d="M0,0v455h455V0H0z M352.751,163.259c0.123,2.773,0.186,5.561,0.186,8.36
	c0,85.403-65.002,183.876-183.873,183.876c-36.496,0-70.466-10.697-99.065-29.037c5.056,0.601,10.199,0.907,15.417,0.907
	c30.278,0,58.143-10.331,80.262-27.668c-28.28-0.519-52.148-19.204-60.373-44.88c3.948,0.757,7.997,1.163,12.161,1.163
	c5.894,0,11.604-0.794,17.027-2.268c-29.563-5.939-51.841-32.057-51.841-63.368c0-0.273,0-0.544,0.006-0.814
	c8.712,4.84,18.676,7.748,29.271,8.084c-17.342-11.589-28.748-31.371-28.748-53.79c0-11.845,3.187-22.945,8.751-32.492
	c31.873,39.101,79.493,64.828,133.203,67.526c-1.103-4.732-1.677-9.665-1.677-14.729c0-35.688,28.938-64.623,64.626-64.623
	c18.589,0,35.385,7.847,47.173,20.406c14.719-2.895,28.551-8.276,41.038-15.681c-4.824,15.092-15.071,27.754-28.415,35.754
	c13.074-1.563,25.528-5.038,37.118-10.178C376.336,142.766,365.38,154.149,352.751,163.259z"/>
        </symbol>
    

    
        <symbol id='facebook' viewBox="0 0 512 512">
            <path d="m497 0h-482c-8.284 0-15 6.716-15 15v482c0 8.284 6.716 15 15 15h482c8.284 0 15-6.716 15-15v-482c0-8.284-6.716-15-15-15zm-134.291 207.483-10 66.755c-1.1 7.344-7.408 12.778-14.834 12.778h-42.263v149.658c0 8.284-6.716 15-15 15h-71.249c-8.284 0-15-6.716-15-15v-149.657h-30.237c-8.284 0-15-6.716-15-15v-66.755c0-8.284 6.716-15 15-15h30.237v-14.559c0-.722.051-1.431.149-2.126v-16.881c0-53.138 43.231-96.37 96.37-96.37h46.618c13.916 0 25.237 11.322 25.237 25.238v58.167c0 8.284-6.716 15-15 15l-15.353-.002c-14.925-.012-27.809-.023-32.155 2.816-1.698 1.109-4.546 5.762-4.546 24.47v4.247h52.193c4.366 0 8.516 1.902 11.365 5.21 2.848 3.308 4.115 7.693 3.468 12.011z"/>
            <path d="m265.682 205.261v-19.247c0-19.601 2.198-39.174 18.141-49.587 11.834-7.73 27.246-7.722 48.586-7.698h.328v-38.404h-41.855c-36.596 0-66.37 29.773-66.37 66.37v19.007c0 .722-.051 1.431-.149 2.125v27.434c0 8.284-6.716 15-15 15h-30.237v36.755h30.237c8.284 0 15 6.716 15 15v149.658h41.249v-149.657c0-8.284 6.716-15 15-15h44.343l5.506-36.755h-49.778c-8.286-.001-15.001-6.717-15.001-15.001z"/>
        </symbol>
    

    
        <symbol id='dribbble' viewBox="0 0 455 455">
            
	<path d="M163.193,320.694c18.207,12.693,40.352,20.19,64.229,20.19
		c12.064,0,23.372-2.456,34.334-5.922c-1.952-26.554-7.15-52.762-15.024-77.993C213.656,268.781,184.362,290.674,163.193,320.694z"
		/>
	<path d="M238.258,233.344c-2.71-6.898-5.545-13.42-8.726-20.066
		c-25.105,11.089-52.322,17.23-80.23,17.23c-11.687,0-23.499-1.479-35.186-3.087c0,29.673,11.561,56.354,30.146,76.546
		C168.485,270.734,201.214,246.511,238.258,233.344z"/>
	<path d="M290.169,133.047c-17.955-11.938-39.469-18.932-62.747-18.932
		c-10.333,0-20.066,1.827-29.643,4.41c16.223,18.838,30.619,39.123,42.683,60.795C259.552,167.508,276.403,152.011,290.169,133.047z
		"/>
	<path d="M217.941,190.756c-12.537-22.271-27.437-43.188-44.667-62.245
		c-27.784,15.247-48.574,41.58-55.976,73.333C151.885,208.238,186.818,204.174,217.941,190.756z"/>
	<path d="M270.986,250.07c7.497,24.129,12.443,48.856,14.9,74.087
		c26.555-16.128,46.242-42.588,52.668-73.962C315.779,245.754,292.878,245.628,270.986,250.07z"/>
	<path d="M251.929,201.717c3.812,8.002,7.244,16.128,10.458,24.35
		c25.325-5.639,51.785-5.764,78.246-1.103c-0.631-29.169-12.443-55.629-31.122-75.411
		C293.509,170.942,273.947,188.55,251.929,201.717z"/>
	<path d="M0,0v455h455V0H0z M227.422,366.116
		c-76.42,0-138.538-62.276-138.538-138.695S151.002,88.884,227.422,88.884c76.418,0,138.694,62.118,138.694,138.537
		S303.84,366.116,227.422,366.116z"/>
        </symbol>
    
    </svg>

    
       