<svg display='none' xmlns="http://www.w3.org/2000/svg">
	<symbol id='amazon' viewBox="163.5 263.1 285 85.8">
            <path d="m340.3 330.2c-16.5 12.2-40.5 18.7-61.2 18.7-29 0-55-10.7-74.8-28.5-1.5-1.4-.2-3.3 1.7-2.2 21.3 12.4 47.6 19.8 74.8 19.8 18.3 0 38.5-3.8 57.1-11.7 2.8-1.1 5.1 1.9 2.4 3.9z" fill="#f90"/>
			<path d="m347.2 322.3c-2.1-2.7-14-1.3-19.3-.6-1.6.2-1.9-1.2-.4-2.2 9.5-6.7 25-4.7 26.8-2.5s-.5 17.8-9.4 25.2c-1.4 1.1-2.7.5-2.1-1 2-5 6.5-16.1 4.4-18.9z" fill="#f90"/>
			<path d="m328.2 272.5v-6.5c0-1 .7-1.6 1.6-1.6h29c.9 0 1.7.7 1.7 1.6v5.5c0 .9-.8 2.1-2.2 4.1l-15 21.4c5.6-.1 11.5.7 16.5 3.5 1.1.6 1.4 1.6 1.5 2.5v6.9c0 1-1 2.1-2.1 1.5-8.9-4.7-20.8-5.2-30.6.1-1 .5-2.1-.5-2.1-1.5v-6.6c0-1 0-2.8 1.1-4.4l17.4-24.9h-15.1c-.9 0-1.7-.7-1.7-1.6zm-105.7 40.3h-8.8c-.8-.1-1.5-.7-1.6-1.5v-45.2c0-.9.8-1.6 1.7-1.6h8.2c.9 0 1.5.7 1.6 1.5v5.9h.2c2.1-5.7 6.2-8.4 11.6-8.4 5.5 0 9 2.7 11.4 8.4 2.1-5.7 7-8.4 12.2-8.4 3.7 0 7.7 1.5 10.2 5 2.8 3.8 2.2 9.3 2.2 14.2v28.6c0 .9-.8 1.6-1.7 1.6h-8.7c-.9-.1-1.6-.8-1.6-1.6v-24c0-1.9.2-6.7-.2-8.5-.7-3-2.6-3.9-5.2-3.9-2.1 0-4.4 1.4-5.3 3.7s-.8 6.1-.8 8.7v24c0 .9-.8 1.6-1.7 1.6h-8.8c-.9-.1-1.6-.8-1.6-1.6v-24c0-5 .8-12.5-5.4-12.5-6.3 0-6.1 7.2-6.1 12.5v24c-.1.8-.8 1.5-1.8 1.5zm163-49.3c13.1 0 20.2 11.2 20.2 25.5 0 13.8-7.8 24.8-20.2 24.8-12.8 0-19.8-11.2-19.8-25.2-.1-14.1 7-25.1 19.8-25.1zm0 9.3c-6.5 0-6.9 8.9-6.9 14.4s-.1 17.3 6.8 17.3c6.8 0 7.2-9.5 7.2-15.3 0-3.8-.2-8.4-1.3-12-1-3.2-3-4.4-5.8-4.4zm37.1 40h-8.8c-.9-.1-1.6-.8-1.6-1.6v-45.3c.1-.8.8-1.5 1.7-1.5h8.2c.8 0 1.4.6 1.6 1.3v6.9h.2c2.5-6.2 5.9-9.1 12-9.1 3.9 0 7.8 1.4 10.3 5.3 2.3 3.6 2.3 9.7 2.3 14.1v28.5c-.1.8-.8 1.4-1.7 1.4h-8.8c-.8-.1-1.5-.7-1.6-1.4v-24.6c0-5 .6-12.2-5.5-12.2-2.1 0-4.1 1.4-5.1 3.6-1.2 2.8-1.4 5.5-1.4 8.6v24.4c-.1.9-.9 1.6-1.8 1.6zm-117.5-21.6c0 3.4.1 6.3-1.6 9.4-1.4 2.5-3.6 4-6.1 4-3.4 0-5.4-2.6-5.4-6.4 0-7.5 6.7-8.9 13.1-8.9zm8.9 21.5c-.6.5-1.4.6-2.1.2-2.9-2.4-3.5-3.6-5.1-5.9-4.8 4.9-8.3 6.4-14.5 6.4-7.4 0-13.2-4.6-13.2-13.7 0-7.2 3.9-12 9.4-14.4 4.8-2.1 11.5-2.5 16.6-3.1v-1.1c0-2.1.2-4.6-1.1-6.4-1.1-1.6-3.1-2.3-4.9-2.3-3.4 0-6.4 1.7-7.1 5.3-.2.8-.7 1.6-1.5 1.6l-8.5-.9c-.7-.2-1.5-.7-1.3-1.8 2-10.4 11.3-13.5 19.7-13.5 4.3 0 9.9 1.1 13.3 4.4 4.3 4 3.9 9.4 3.9 15.2v13.7c0 4.1 1.7 5.9 3.3 8.2.6.8.7 1.8 0 2.3-1.9 1.5-5.1 4.3-6.9 5.8zm-124.4-21.5c0 3.4.1 6.3-1.6 9.4-1.4 2.5-3.6 4-6.1 4-3.4 0-5.4-2.6-5.4-6.4 0-7.5 6.7-8.9 13.1-8.9zm8.8 21.5c-.6.5-1.4.6-2.1.2-2.9-2.4-3.5-3.6-5.1-5.9-4.8 4.9-8.3 6.4-14.5 6.4-7.4 0-13.2-4.6-13.2-13.7 0-7.2 3.9-12 9.4-14.4 4.8-2.1 11.5-2.5 16.6-3.1v-1.1c0-2.1.2-4.6-1.1-6.4-1.1-1.6-3.1-2.3-4.9-2.3-3.4 0-6.4 1.7-7.1 5.3-.2.8-.7 1.6-1.5 1.6l-8.5-.9c-.7-.2-1.5-.7-1.3-1.8 2-10.4 11.3-13.5 19.7-13.5 4.3 0 9.9 1.1 13.3 4.4 4.3 4 3.9 9.4 3.9 15.2v13.7c0 4.1 1.7 5.9 3.3 8.2.6.8.7 1.8 0 2.3-1.9 1.5-5.1 4.3-6.9 5.8z"/>
    </symbol>

	<symbol id='cola' viewBox="0 -0.001 800 261.954">
            <path d="M307.209 228.509c-29.768-19.176-70.167-22.541-135.319-4.465-69.457 16.322-92.615 26.785-123.028 5.781-11.684-10.318-15.873-26.931-12.745-50.861 7.255-39.01 26.861-76.551 61.687-118.193 19.438-21.662 37.47-40.252 61.279-47.717 18.248-4.683 16.542 9.658 14.334 11.709-2.33 0-6.244.367-9.269 2.341-2.455 1.904-9.194 8.052-9.556 16.322-.522 12.66 12.579 10.025 18.23 3.074 6.091-7.833 15.093-22.833 8.012-36.813-2.968-4.976-8.096-8.415-14.463-9.586-21.802-1.246-42.106 9.147-60.846 20.637C64.543 49.207 31.76 88.655 13.21 131.835c-10.694 26.053-20.366 63.373-5.869 93.748 11.216 21.076 34.499 32.271 62.278 29.93 19.483-2.047 43.042-8.344 58.887-12.146 15.846-3.809 96.954-31.689 123.604 16.836 0 0 8.862-17.203 31.009-17.57 18.208-1.68 44.476 5.271 63.604 19.32-6.373-9.584-24.441-23.709-39.514-33.444z"/>
			<path d="M180.16 65.674c-15.17-9.953-45.66 9.075-70.081 41.714-22.332 29.277-31.975 63.304-21.48 79.039 15.61 18.515 44.591-8.416 56.915-22.831l1.59-1.685c8.381-9.002 14.855-19.834 21.123-30.228 0 0 5.76-9.514 6.035-9.954 3.56-.656 7.848-1.681 12.68-3.072-.069.218-18.487 31.176-16.608 46.542.585 4.688.139 21.813 16.858 27.008 22.284 3.735 40.078-13.539 55.776-28.908 0 0 2.675-2.559 4.188-4.02-.383 1.532-.882 3.577-.882 3.577-6.524 22.688 2.27 27.449 7.771 29.205 16.625 4.834 36.486-19.319 36.551-19.319-.516 7.608-2.021 13.901 5.999 18.952 7.569 2.71 15.23-1.422 21.054-5.301 20.975-14.782 37.873-37.92 51.521-57.919h-8.706c-.103 0-21.482 30.988-35.365 37.723-.022 0-2.549 1.297-4.004.271-1.803-1.537-1.092-4.734.021-6.998.07-.147 53.604-92.996 53.604-92.996h-25.276s-2.761 4.467-2.986 4.76c-.17-.146-.575-.914-.855-1.282-15.66-21.662-51.123 11.658-77.822 50.298-10.279 14.858-23.366 31.587-36.936 43.662 0 0-20.104 18.428-28.693 5.188-3.14-5.563-2.174-13.696-.403-19.037 10.001-28.47 27.234-54.307 46.845-69.896 5.535-4.315 11.553-5.563 14.538-3.733 2.846 1.686 3.305 5.854 1.505 8.709-4.567-.146-8.227 1.242-11.201 4.316-5.86 6.148-7.896 12.077-6.033 17.64 9.051 12.88 27.102-12.589 26.229-28.104-.312-5.563-3.279-10.831-7.709-13.395-6.601-3.95-16.671-2.927-23.188.222-8.725 3.292-22.534 14.781-30.595 23.711-10.148 11.199-27.553 23.639-32.995 22.246 1.779-4.758 16.48-34.836 1.015-46.105zm121.861 44.496c4.917-6.805 19.228-25.029 22.717-28.102 11.734-10.323 16.424-5.781 16.83-2.563-10.951 19.613-23.876 42.082-36.028 62.282.025-.072-3.803 5.781-3.803 5.781-5.367 8.194-10.771 15.221-19.586 20.123-1.257.369-3.329.516-4.708-.513-1.66-1.098-2.315-2.928-2.128-4.831.529-6.292 6.935-25.536 26.706-52.177zm-137.505 11.782s-.221.661-.329.877c-.028 0-11.021 17.928-11.021 17.928-6.634 8.857-14.917 19.984-25.271 25.324-3.069 1.024-7.312 1.685-9.474-1.021-4.583-5.49-2.221-13.102-.302-19.248l.68-2.196c5.502-14.928 14.231-28.104 22.729-40.326.106-.072.344-.145.43-.145.021.073.055.073.069.22 5.332 10.244 15.33 14.999 22.807 17.198.045 0 .094.073.094.22.001.218-.121.513-.412 1.169zm10.414-21.148c-.049.146-4.896 11.27-4.896 11.27-.701.585-1.809.293-3.079 0l-2.176-.368c-6.833-2.121-11.987-6.659-13.576-12.074-2.191-10.539 6.812-18.809 10.778-21.808 3.806-2.637 9.723-4.027 13.159-1.318 2.119 2.489 2.922 5.708 2.922 9.223.001 4.755-1.467 10.097-3.132 15.075zM494.47 134.759c-2.438-5.268-8.223-8.635-14.389-8.27-20.023 1.831-39.608 18.297-49.892 41.934-5.396 12.15-8.341 22.175-10.272 38.129 6.227-7.17 18.927-18.952 33.339-25.393 0 0 1.961-15.295 11.961-28.908 3.784-5.637 11.356-14.711 19.859-12.297 7.43 2.489 4.818 23.055-5.056 42.957-7.306 14.639-18.486 29.28-29.798 39.377-10.001 8.489-24.798 18.735-37.744 10.832-8.154-4.828-12.313-14.931-11.435-27.957 3.896-36.957 20.72-68.427 44.795-104.287 24.824-33.299 52.188-67.476 89.051-85.702 7.519-3.805 14.482-4.683 20.501-2.341 0 0-34.604 19.028-51.099 54.231-4.196 8.93-10.032 21.002-4.155 31.688 3.071 5.561 8.523 6.001 12.914 5.708 20.219-4.685 33.282-23.566 43.955-40.836 6.188-13.1 11.688-26.127 11.688-40.618 0-1.756-.091-4.097-.239-5.855 9.659-5.121 29.468 3.952 29.468 3.952 15.479 5.125 48.438 30.375 59.556 35.203 5.423-6.293 14.335-15.806 19.354-20.564l-7.265-4.465c-11.63-7.099-23.923-13.833-36.022-20.492-27.479-15.001-49.847-9.733-61.23-5.634-4.474 1.609-8.562 3-8.562 3-8.448-9.221-22.304-8.345-32.513-5.855-36.714 10.538-70.801 36.225-107.346 80.796-26.868 34.91-43.534 65.063-52.417 94.848-6.847 20.052-8.928 49.545 7.784 67.037 14.209 14.853 33.05 11.635 46.354 6.295 28.827-14.198 54.736-44.791 67.646-79.994 3.116-10.464 6.573-25.247 1.209-36.519zm66.287-110.288c-3.816 43.765-37.835 69.455-46.253 71.501-5.101 1.023-13.805-1.244-6.034-19.611 11.442-24.739 30.979-45.741 51.939-56.5.511 1.83.497 2.998.348 4.61zM762.555 30.031c-18.299 10.394-37.269 17.125-60.231 14.784-6.363 7.174-12.56 14.565-18.271 22.175 32.229 8.197 66.396-10.026 85.452-27.369C789.664 22.129 800 .102 800 .102s-15.11 17.27-37.445 29.929zM416.729 66.476h-24.004l-13.54 22h23.999z"/>
			<path d="M702.228 230.546c-2.581 1.756-6.207.406-4.852-3.618 3.378-10.246 16.804-31.126 16.804-31.126l37.396-66.326h-25.615c-1.218 2-3.821 6.592-3.821 6.592-1.185-1.974-4.729-6.363-6.188-7.312-6.258-3.955-15.439-2.085-21.773 1.5-27.539 16.103-47.632 47.918-63.479 72.729 0 0-16.681 27.58-25.94 29.631-7.229.586-6.483-9.152-6.17-11.421 2.795-16.396 9.286-31.983 15.825-46.108 13.302-9.221 28.481-21.296 42.276-34.542 29.938-28.618 55.177-61.039 58.866-68.284 0 0-3.993.806-8.708.951-23.032 32.128-70.164 78.822-84.453 85.773 6.33-15.226 47.228-87.896 82.03-122.658l5.477-5.271c8.469-8.27 17.243-16.759 24.081-18.15.722-.073 1.652 0 2.455 1.686.305 6.439-2.092 11.197-4.842 16.612l-3.854 7.905s5.459-1.025 9.045-2.199c4.159-7.827 8.767-16.612 7.068-27.075-.566-3.367-3.004-5.928-6.189-6.514-10.382-1.976-21.696 5.706-30.801 11.929l-.367.218c-46.802 36.666-86.321 89.506-120.873 161.667-2.504 1.9-12.179 4.171-13.823 3.072 3.412-7.024 7.708-16.467 9.857-26.713.372-2.929.718-5.927.718-8.854 0-6.299-1.512-12.225-7.154-16.321-6.616-3.294-14.793-1.756-20.307.73-24.697 10.246-43.156 35.57-56.477 56.425-7.164 13.25-14.307 27.441-16.285 43.691-1.393 12.732 1.443 20.93 8.683 25.029 7.444 3.803 16.814-.15 20.495-2.051 25.021-13.174 42.504-39.592 56.284-63.744.548-.072 8.072-.29 13.764-1.756.075 0 .107 0 .233.076-.326 1.094-3.267 9.879-3.267 9.879-8.734 25.612-12.773 43.032-4.523 53.35 11.789 14.564 31.307-.51 47.184-20.42-3.408 23.857 8.956 27.592 18.382 25.764 10.827-2.926 22.892-14.492 28.491-20.418-1.798 6.951-1.31 19.395 8.54 20.637 6.75 1.248 11.803-2.424 17.648-5.572 20.969-11.418 46.07-49.465 52.587-60.465h-8.545c-9.265 14.003-21.054 32.359-35.883 41.072zm-188.218-2.548c-1.33-1.977-1.771-4.137-1.815-6.473-.255-14.351 15.185-40.049 26.082-54.049h.023c4.566 10 14.908 16.428 21.151 19.137-7.753 17.273-34.346 54.265-45.441 41.385zm49.818-49.107c-.738.516-13.779-3.878-16.3-15.953-2.138-10.396 5.021-18.519 11.947-22.613 2.973-2.344 7.451-3.146 10.736-1.98 3.049 2.053 3.875 5.715 3.875 9.66 0 2.42-.321 4.906-.604 7.174l-.062.514a97.483 97.483 0 0 1-9.592 23.198zm104.597 44.497c-.011 0-2.475 2.195-2.475 2.195-3.518 3.146-7.138 6.512-11.508 4.828-1.207-.438-2.056-2.047-2.26-3.295-.199-9.002 3.854-17.343 7.786-25.466l1.008-2.123c11.308-18.881 24.452-41.129 43.756-56.569 3.253-2.347 6.783-4.319 10.509-2.781.857.804 1.855 2.195 1.855 3.584 0 .441-.392 1.611-.617 1.976-5.392 8.713-10.526 17.859-15.519 26.641-9.758 17.345-19.881 35.272-32.535 51.01z"/>
    </symbol>

	<symbol id='infinity' viewBox="0 0 192.756 192.756">
            <path fill="#fff" d="M0 0h192.756v192.756H0V0z"/><path d="M58.439 140.307v-9.213h4.877v1.35h-3.157v2.334h2.961v1.353h-2.961v4.176h-1.72zM134.289 140.381v-9.213h1.721v9.213h-1.721zM156.623 131.12h5.736v1.352h-2.002v7.861h-1.72v-7.861h-2.014v-1.352zM8.504 140.381v-9.213h1.72v9.213h-1.72zM111.461 131.085h1.477v9.214h-2l-2.399-6.941v6.941h-1.437v-9.214h2.017l2.358 7.016h-.026l.01-7.016zM182.533 140.381v-9.213h1.719v9.213h-1.719zM83.933 140.381v-9.213h1.72v9.213h-1.72zM35.744 131.085h1.475v9.214h-2.002l-2.396-6.941v6.941h-1.437v-9.214H33.4l2.357 7.016h-.024l.011-7.016zM96.363 52.375c-37.081 0-67.142 15.156-67.142 33.85 0 15.136 19.71 27.952 46.897 32.282L96.363 70.15l20.245 48.356c27.189-4.33 46.896-17.146 46.896-32.282 0-18.693-30.059-33.849-67.141-33.849zm30.832 50.839L96.363 67.409l-30.716 35.704C50.521 98.891 40.551 91.5 40.551 82.414c0-14.412 24.798-27.925 55.753-27.925 30.957 0 56.348 13.513 56.348 27.925 0 9.156-10.129 16.594-25.457 20.8z"/>
    </symbol>

	<symbol id='total' viewBox="0 0 192.756 192.756">
            <path fill="#fff" d="M0 0h192.756v192.756H0V0z"/><path d="M70.621 156.859c-4.222 0-7.464.856-9.728 2.569s-3.426 4.16-3.426 7.28c0 3.121 1.162 5.507 3.426 7.22s5.506 2.57 9.728 2.57c4.16 0 7.403-.857 9.728-2.57 2.264-1.713 3.426-4.099 3.426-7.22 0-3.12-1.163-5.567-3.426-7.28-2.326-1.712-5.568-2.569-9.728-2.569zm0 15.112c-4.589 0-6.914-1.774-6.914-5.262 0-3.548 2.325-5.322 6.914-5.322 4.588 0 6.913 1.774 6.913 5.322 0 3.487-2.326 5.262-6.913 5.262zM108.309 157.349H85.488v4.16h7.954v13.032c0 1.162 1.162 1.713 3.425 1.713 2.387 0 3.549-.551 3.549-1.713v-13.032h7.893v-4.16zM138.715 158.694v8.872c0 3.487 1.102 5.812 3.305 7.097 1.773 1.04 5.812 1.469 12.236 1.407h5.812v-4.344h-9.605c-1.896 0-3.182-.306-3.977-.979-.674-.551-1.041-1.529-1.041-2.875v-9.178c0-1.101-1.102-1.651-3.365-1.651s-3.365.551-3.365 1.651zM42.171 156.247v14.072c0 1.651.673 3.059 2.019 4.099s3.182 1.652 5.506 1.836v-20.007h10.646v-4.589H32.688v4.589h9.483zM113.508 164.079c-3.303 4.221-5.262 7.953-5.934 11.257l-.184.734h6.24l.061-.489c.307-1.163.674-2.325 1.225-3.487h13.582c.551 1.162.918 2.324 1.223 3.487l.123.489h6.18l-.184-.734c-.672-3.304-2.631-7.036-5.996-11.257-2.447-3.182-4.467-5.323-6.117-6.485-.43-.306-1.102-.49-2.02-.551-.918.061-1.592.245-2.02.551-1.589 1.1-3.669 3.242-6.179 6.485zm3.549 4.037a38.698 38.698 0 0 1 4.65-5.629c1.773 1.775 3.305 3.61 4.588 5.629h-9.238z" fill="#cd352c"/><path d="M143.182 77.323c-3.977 4.527-10.279 8.076-18.904 10.646-8.566 2.631-17.254 3.61-26.002 2.937-5.446-.428-12.054-1.774-19.824-4.038-8.198-2.508-14.623-5.14-19.211-7.954 10.646 10.217 22.515 17.253 35.546 21.169 8.016 2.386 15.906 3.487 23.799 3.365 7.832-.123 14.133-1.469 18.967-3.978 3.426-2.325 5.629-5.445 6.67-9.421.916-3.732.611-7.771-.797-12.053l-.244-.673z" fill="#e19439"/><path d="M136.451 69.064c-1.957 9.728-5.445 18.966-10.461 27.776-5.078 8.872-10.707 15.602-16.947 20.312-5.629 4.222-11.441 7.097-17.499 8.627-5.567 1.407-10.89 1.651-16.091.673-4.895-.918-9.116-2.814-12.665-5.69-3.61-2.813-6.057-6.24-7.403-10.278 2.386 3.487 5.629 5.812 9.851 7.036 4.16 1.224 8.32 1.102 12.542-.306 10.095-4.038 18.905-14.316 26.307-30.774a137.65 137.65 0 0 0 7.037-19.64c1.652-5.935 2.691-10.951 3.119-15.111.979-12.175-.672-20.924-4.955-26.125-5.689-6.057-13.643-7.464-23.738-4.344 3.976-3.243 9.422-4.895 16.396-4.956 7.219-.123 13.705 1.468 19.395 4.833 7.525 4.466 12.48 11.196 14.928 20.251 2.204 8.077 2.264 17.315.184 27.716z" fill="#2f489a"/><path d="M100.416 55.849c-10.462-3.365-20.863-4.589-31.142-3.609-9.483.917-16.519 3.426-21.169 7.403-3.732 4.221-3.61 9.544.489 16.09.429.734 1.346 1.896 2.692 3.487 2.753-6.363 10.462-12.052 23.188-17.069 4.895-1.958 9.911-3.549 14.989-4.711 4.712-1.102 8.322-1.652 10.953-1.591z" fill="#e19439"/><path d="M44.068 88.03c1.652 5.445 4.71 10.523 9.115 15.111 4.161 4.345 9.239 7.954 15.235 10.952a66.473 66.473 0 0 0 18.538 5.995c6.669 1.163 13.033 1.285 19.089.367 6.791-1.04 13.275-3.364 19.332-6.975 3.244-1.958 6.73-4.589 10.463-7.893a68.104 68.104 0 0 1-22.453 2.447 94.406 94.406 0 0 1-30.652-6.791c-12.42-5.017-22.759-12.236-31.08-21.658l-.367-.367c-1.346-1.591-2.264-2.753-2.692-3.487-4.099-6.546-4.221-11.869-.489-16.09a16.491 16.491 0 0 0-2.019 2.203c-2.325 2.998-3.67 6.791-3.977 11.44-.307 4.59.305 9.485 1.957 14.746z" fill="#4fa6e0"/><path d="M150.463 65.821c-.857-6.607-3.121-12.665-6.791-18.11-4.1-6.179-9.729-11.196-16.887-15.112-7.402-4.038-15.785-6.546-25.084-7.586-12.727-1.407-24.595.673-35.669 6.24-4.344 2.203-8.382 5.323-12.053 9.422-3.977 4.466-7.097 9.483-9.3 15.173 1.774-2.937 4.161-5.262 7.281-7.036 3.426-1.896 7.954-3.181 13.521-3.977 5.935-.795 12.542-.673 19.945.306 7.709.979 15.357 2.814 22.943 5.507 9.729 3.548 17.865 8.015 24.473 13.398 5.201 4.466 8.627 8.871 10.34 13.276l.244.673c1.408 4.283 1.713 8.321.797 12.053-1.041 3.976-3.244 7.096-6.67 9.421l1.836-1.04.061-.061a14.226 14.226 0 0 0 1.896-1.469l.857-.796c3.119-3.181 5.445-7.464 6.975-12.848 1.652-5.626 2.08-11.438 1.285-17.434z" fill="#cd352c"/>
    </symbol>

	<symbol id='apple' viewBox="0 0 2423.5 829">
            <path d="M563.7,440.5c-1-104.9,85.7-155.3,89.6-157.7c-48.8-71.3-124.6-81.1-151.6-82.2c-64.5-6.6-125.9,38-158.7,38
			s-83.3-37.1-136.8-36c-70.4,1-135.3,40.9-171.6,103.9C-38.4,433.1,16,621.1,87.3,724c34.9,50.3,76.3,107,130.9,104.9
			c52.6-2.1,72.4-34,135.8-34s81.3,34,136.8,33c56.5-1.1,92.3-51.4,126.9-101.9C657.5,667.5,674,611,675,608
			C673.7,607.5,564.9,565.8,563.7,440.5"/>
			<path d="M459.4,132.4c29-35.1,48.5-83.8,43.2-132.4c-41.7,1.7-92.2,27.8-122.1,62.9c-26.8,31-50.3,80.6-43.9,128.2
			C382.9,194.7,430.5,167.4,459.4,132.4 M929.4,543.6l-48,145.5h-61.7l157.1-462.4h72l157.7,462.4h-63.8l-49.4-145.5H929.4z
			 M1081,496.9l-45.2-133.1c-10.3-30.2-17.1-57.6-24-84.4h-1.3c-6.9,27.4-14.4,55.5-23.3,83.7l-45.2,133.7L1081,496.9z M1253.3,465.4
			c0-42.5-1.3-76.9-2.8-108.4h54.2l2.8,57h1.3c24.7-40.5,63.8-64.5,118-64.5c80.3,0,140.6,67.9,140.6,168.8
			c0,119.4-72.7,178.3-150.9,178.3c-43.9,0-82.3-19.2-102.2-52.1h-1.3v180.4h-59.7V465.4z M1312.9,553.9c0,9,1.3,17.1,2.8,24.7
			c11,41.8,47.3,70.7,90.6,70.7c63.8,0,100.9-52.1,100.9-128.3c0-66.6-35-123.4-98.8-123.4c-41.1,0-79.5,29.5-91.3,74.8
			c-2.1,7.5-4.1,16.5-4.1,24.7L1312.9,553.9L1312.9,553.9z M1629.8,465.4c0-42.5-1.3-76.9-2.8-108.4h54.2l2.8,57h1.3
			c24.7-40.5,63.8-64.5,118-64.5c80.3,0,140.6,67.9,140.6,168.8c0,119.4-72.7,178.3-150.9,178.3c-43.9,0-82.3-19.2-102.2-52.1h-1.3
			v180.4h-59.7V465.4z M1689.5,553.9c0,9,1.3,17.1,2.8,24.7c11,41.8,47.3,70.7,90.6,70.7c63.8,0,100.9-52.1,100.9-128.3
			c0-66.6-35-123.4-98.8-123.4c-41.1,0-79.5,29.5-91.3,74.8c-2.1,7.5-4.1,16.5-4.1,24.7L1689.5,553.9L1689.5,553.9z M2006.4,202h60.4
			v487h-60.4V202z M2188.2,534c1.3,81.6,53.5,115.3,113.8,115.3c43.2,0,69.3-7.5,91.9-17.1l10.3,43.2c-21.2,9.6-57.6,20.6-110.4,20.6
			c-102.2,0-163.3-67.2-163.3-167.4s59-179.1,155.7-179.1c108.4,0,137.2,95.3,137.2,156.4c0,12.4-1.3,21.9-2.1,28.1H2188.2z
			 M2365.2,490.8c0.7-38.4-15.8-98.1-83.7-98.1c-61.1,0-87.8,56.3-92.6,98.1H2365.2z"/>
    </symbol>

	<symbol id='walmart' viewBox="-384.501 305.5 901.319 214.234">
            <path d="M407.22 377.62c5.02 0 9.152-2.61 9.71-5.982l4.956-56.05c0-5.54-6.49-10.088-14.65-10.088-8.152 0-14.636 4.548-14.636 10.089l4.953 56.049c.545 3.371 4.677 5.982 9.684 5.982h-.017M376.927 395.127c2.518-4.342 2.328-9.222-.326-11.39l-46.07-32.317c-4.79-2.774-11.972.565-16.048 7.634-4.09 7.06-3.365 14.945 1.412 17.72l51.013 23.752c3.189 1.182 7.537-1.093 10.035-5.432l-.016.033M437.54 395.097c2.514 4.339 6.84 6.615 10.032 5.432l51.013-23.752c4.807-2.774 5.49-10.66 1.438-17.72-4.096-7.062-11.291-10.408-16.068-7.634l-46.073 32.317c-2.634 2.165-2.83 7.049-.326 11.39l-.016-.033M407.22 447.635c5.02 0 9.152 2.588 9.71 5.963l4.956 56.042c0 5.557-6.49 10.095-14.65 10.095-8.152 0-14.636-4.538-14.636-10.095l4.953-56.042c.545-3.375 4.677-5.963 9.684-5.963h-.017M437.54 430.124c2.514-4.351 6.84-6.607 10.032-5.411l51.013 23.736c4.807 2.777 5.49 10.67 1.438 17.736-4.096 7.039-11.291 10.394-16.068 7.624l-46.073-32.287c-2.634-2.182-2.83-7.069-.326-11.407h-.02M376.927 430.118c2.518 4.335 2.328 9.222-.326 11.408l-46.07 32.286c-4.79 2.77-11.972-.585-16.048-7.624-4.09-7.066-3.365-14.959 1.412-17.736l51.013-23.736c3.189-1.196 7.537 1.06 10.035 5.412h-.016" fill="#fdbb30"/><path d="M116.622 441.42c0 1.72-.153 3.494-.624 5.052-1.954 6.471-8.654 11.943-17.036 11.943-6.989 0-12.54-3.97-12.54-12.355 0-12.833 14.125-16.377 30.204-16.288l-.004 11.647zm25.22-22.364c0-21.161-9.042-39.781-39.594-39.781-15.683 0-28.13 4.405-34.924 8.331l4.976 17.012c6.209-3.92 16.105-7.165 25.47-7.165 15.497-.043 18.035 8.776 18.035 14.42v1.336c-33.781-.05-55.135 11.647-55.135 35.475 0 14.56 10.876 28.197 29.782 28.197 11.617 0 21.347-4.637 27.17-12.072h.575s3.853 16.142 25.124 9.966c-1.11-6.713-1.475-13.879-1.475-22.496l-.003-33.223M-384.5 350.457s22.075 90.454 25.6 105.134c4.112 17.135 11.523 23.443 32.88 19.184l13.783-56.078c3.495-13.936 5.834-23.872 8.086-38.034h.392c1.581 14.312 3.824 24.141 6.7 38.08 0 0 5.608 25.46 8.485 38.828 2.88 13.364 10.896 21.792 31.818 17.204l32.844-124.322h-26.51l-11.218 53.753c-3.016 15.64-5.75 27.875-7.86 42.18h-.375c-1.917-14.179-4.358-25.915-7.421-41.157l-11.67-54.776h-27.626l-12.49 53.395c-3.535 16.23-6.85 29.33-8.95 43.159h-.382c-2.156-13.022-5.026-29.493-8.132-45.196 0 0-7.415-38.193-10.023-51.358l-27.931.004M-173.766 441.42c0 1.72-.153 3.494-.631 5.052-1.95 6.471-8.654 11.943-17.036 11.943-6.99 0-12.533-3.97-12.533-12.355 0-12.833 14.121-16.377 30.203-16.288l-.003 11.647zm25.217-22.364c0-21.161-9.042-39.781-39.588-39.781-15.687 0-28.144 4.405-34.934 8.331l4.97 17.012c6.208-3.92 16.104-7.165 25.472-7.165 15.508-.043 18.046 8.776 18.046 14.42v1.336c-33.795-.05-55.139 11.647-55.139 35.475 0 14.56 10.87 28.197 29.762 28.197 11.633 0 21.357-4.637 27.187-12.072h.568s3.864 16.142 25.13 9.966c-1.112-6.713-1.474-13.879-1.474-22.496v-33.223M-106.463 448.385v-97.928h-25.25v124.322h25.25v-26.394M223.853 350.457v91.71c0 12.65 2.385 21.503 7.47 26.921 4.456 4.737 11.777 7.803 20.557 7.803 7.468 0 14.81-1.425 18.275-2.71l-.326-19.726c-2.578.63-5.538 1.14-9.59 1.14-8.604 0-11.481-5.512-11.481-16.863v-35.09h21.988v-23.79h-21.988v-29.395h-24.905M158.679 381.384v93.395h26.047v-47.82c0-2.585.156-4.837.565-6.897 1.927-10.022 9.587-16.42 20.59-16.42 3.016 0 5.175.328 7.514.66v-24.45c-1.963-.391-3.295-.574-5.737-.574-9.72 0-20.779 6.272-25.42 19.726h-.704v-17.62h-22.855M-88.783 381.384v93.395h25.377v-54.767c0-2.57.302-5.288 1.192-7.644 2.103-5.514 7.235-11.972 15.424-11.972 10.245 0 15.029 8.657 15.029 21.151v53.225h25.357v-55.434c0-2.452.335-5.408 1.06-7.57 2.082-6.276 7.61-11.379 15.224-11.379 10.381 0 15.364 8.505 15.364 23.211v51.169h25.374v-55.01c0-29.007-14.73-40.49-31.36-40.49-7.358 0-13.172 1.843-18.43 5.065-4.415 2.72-8.375 6.574-11.83 11.64h-.375c-4.01-10.065-13.445-16.7-25.74-16.7-15.795 0-22.894 8.007-27.2 14.797h-.378v-12.69h-24.088" fill="#1a75cf"/><path d="M511.38 470.238h.383c.508 0 .834-.21.834-.522 0-.355-.306-.548-.778-.548-.162 0-.328.033-.438.033v1.046-.01zm-.059 2.518h-1.349v-4.395c.306-.06 1.02-.167 1.934-.167.993 0 1.438.14 1.764.36.275.192.475.52.475.963 0 .451-.415.833-1.027 1v.056c.499.133.771.495.914 1.13.136.634.22.893.305 1.056h-1.528c-.133-.163-.212-.552-.302-.94-.086-.445-.296-.668-.747-.668h-.442l.003 1.605zm.558-5.827c-1.937 0-3.398 1.578-3.398 3.59 0 1.96 1.465 3.559 3.451 3.559 1.994.033 3.459-1.598 3.459-3.591 0-1.984-1.465-3.558-3.482-3.558h-.03zm.087-1.193c2.7 0 4.853 2.126 4.853 4.75 0 2.655-2.153 4.784-4.89 4.784s-4.917-2.132-4.917-4.783c0-2.625 2.183-4.75 4.917-4.75h.03" fill="#fdbb30"/>
    </symbol>
	
	<symbol id='hyundai' viewBox="0 0 192.756 192.756">
            <path fill="#fff" d="M0 0h192.756v192.756H0V0z"/><path fill="#295ba7" d="M8.504 113.751h6.803v7.48H27.46v-7.48h6.718v20.993H27.46v-8.839H15.22v8.755H8.504v-20.909zM34.942 113.751h6.629l6.971 8.075 6.886-8.075h6.545l-10.116 12.834v8.159h-6.715v-8.754l-10.2-12.239zM62.823 113.751h6.716v16.234h10.795c1.7 0 2.805-1.697 2.805-3.484v-12.75h6.714v16.745c0 2.634-2.974 4.164-4.675 4.164H62.823v-20.909zM91.298 113.751h22.358c2.635 0 4.76 1.613 4.76 4.889v16.062l-6.715.042v-12.749c0-1.782-.596-2.845-2.891-2.845H98.695v15.641h-7.397v-21.04zM120.457 113.751h19.549c3.912 0 6.93 3.144 6.93 5.566v9.648c-.043 1.699-2.424 5.778-5.398 5.778h-21.08v-20.992h-.001zm6.842 16.32h10.318c1.486 0 2.635-1.105 2.635-2.467v-6.119c0-1.488-1.223-2.377-2.793-2.377h-10.16v10.963zM155.225 113.662h20.953v21.082h-7.482v-5.437h-12.879v5.437h-7.564v-13.686c-.171-4.588 3.911-7.396 6.972-7.396zm.507 7.486v3.396h12.922v-5.357h-10.883c-1.273.001-2.039.768-2.039 1.961zM177.537 113.709h6.715v21.673h-6.715v-21.673zM96.787 52.968c-27.866 0-50.457 11.154-50.457 24.909 0 13.756 22.591 24.911 50.457 24.911 27.864 0 50.456-11.154 50.456-24.911-.001-13.754-22.593-24.909-50.456-24.909zM92 58.512c5.759-2.036 22.869 0 29.515 3.192 2.127 2.04-9.484 8.594-23.309 11.435C78.44 77.125 87.834 61.88 92 58.512zM58.055 88.027c-4.345-3.098-12.853-11.964 1.241-21.181 7.445-4.342 11.61-5.32 16.75-6.382 2.483-.534 4.255.088 2.039 1.95-4.697 4.875-14.447 21.003-15.332 24.551-.711 2.395-2.128 3.012-4.698 1.062zm40.591 10.284c-8.33.884-26.853-1.862-27.209-4.252.356-5.765 29.426-15.337 34.654-10.019 2.218 4.165-2.036 14.004-7.445 14.271zm42.368-16.756c-2.129 4.876-9.307 10.374-24.373 14.097-2.307.528-3.104-.888-1.598-2.218 2.484-1.506 14.449-21.536 15.955-25.527.887-2.04 2.57-1.239 3.635-.443 4.787 3.101 8.42 8.154 6.381 14.091z"/>
    </symbol>

	<symbol id='samsung' viewBox="0 0 200.777 66.659">
            <path d="M200.653 15.87C197.923.194 150.822-4.698 95.446 4.943 72.19 8.994 51.191 14.969 34.838 21.691c2.512.055 4.375.631 5.507 1.76.885.886 1.332 2.102 1.332 3.617v1.555h-5.43V27.25c0-1.144-.686-1.853-1.901-1.853-1.021 0-1.65.461-1.853 1.369a2.63 2.63 0 0 0 .022 1.084c.581 2.375 8.644 3.85 9.521 8.233.115.564.271 1.771.025 3.498-.503 3.535-3.609 4.899-7.563 4.899-5.519 0-7.761-2.614-7.761-6.218l.004-1.705h5.821l.003 2.124c0 1.194.868 1.853 2.05 1.853 1.12 0 1.774-.451 2-1.373.105-.424.151-1.049-.04-1.527-1.077-2.702-8.606-3.964-9.533-8.333-.207-.982-.224-1.818-.052-2.875a5.606 5.606 0 0 1 .482-1.511C9.333 33.398-1.278 42.732.124 50.791c2.733 15.678 49.833 20.565 105.208 10.924 24.342-4.237 46.226-10.58 62.881-17.688-.241.012-.475.038-.725.038-3.79 0-7.174-1.42-7.525-5.294-.062-.705-.073-1-.075-1.402l.002-8.906c0-.384.045-1.058.088-1.406.449-3.744 3.409-5.288 7.512-5.288 3.175 0 7.068.911 7.496 5.291.057.55.051 1.137.05 1.33v.841h-5.484v-1.255c0-.027-.008-.496-.068-.789-.09-.447-.471-1.483-2.033-1.483-1.543 0-1.943 1.038-2.043 1.484-.057.245-.084.597-.084.987v9.679c-.005.336.012.599.046.792.027.152.304 1.486 2.1 1.486 1.783 0 2.059-1.334 2.084-1.486.047-.262.053-.574.051-.792v-2.999h-2.158v-3.23h7.631v5.746c-.002.391-.008.68-.074 1.4-.092 1.016-.412 1.876-.914 2.611 17.663-8.387 27.947-17.57 26.563-25.512zM57.065 43.653l-2.778-18.876h-.1l-2.849 18.876h-5.855l3.938-21.317h9.553l3.914 21.317h-5.823zm28.162 0l-.129-18.511h-.094l-3.445 18.511h-5.495l-3.428-18.511h-.098l-.125 18.511h-5.445l.472-21.317h8.758l2.55 15.835h.125l2.557-15.835h8.754l.47 21.317h-5.427zm25.641-4.131c-.586 4.129-4.631 4.851-7.49 4.851-4.747 0-7.683-2.029-7.683-6.158l.003-1.684h5.751l.004 2.098c0 1.139.803 1.836 2.043 1.836 1.106 0 1.754-.444 1.979-1.356.104-.425.147-1.045-.037-1.513-1.06-2.651-8.53-3.95-9.438-8.251-.208-.975-.223-1.803-.052-2.849.632-3.899 4.374-4.709 7.386-4.709 2.694 0 4.655.588 5.831 1.764.877.878 1.321 2.083 1.321 3.582v1.538h-5.378v-1.357c0-1.162-.721-1.834-1.88-1.834-1.028 0-1.65.457-1.854 1.356a2.59 2.59 0 0 0 .026 1.072c.576 2.364 8.568 3.809 9.443 8.151.113.554.268 1.743.025 3.463zm19.918-1.937c.008.4-.031 1.199-.053 1.404-.328 3.512-2.84 5.297-7.447 5.297-4.625 0-7.139-1.785-7.465-5.297a16.957 16.957 0 0 1-.053-1.4V22.331h5.502V38.07c-.006.352.012.612.047.793.068.35.416 1.486 1.969 1.486 1.548 0 1.896-1.137 1.969-1.482.031-.186.05-.459.05-.798V22.331h5.481v15.254zm23.705 5.851h-7.656l-5.139-16.885h-.086l.285 16.885h-5.336v-21.1h7.977l4.75 16.22h.111l-.281-16.22h5.375v21.1z" fill="#2d4f9e"/>
    </symbol>
</svg>